<?xml version="1.0" encoding="UTF-8" standalone="no"?>
<svg width="600px" height="600px" viewBox="0 0 600 600" version="1.1" xmlns="http://www.w3.org/2000/svg" xmlns:xlink="http://www.w3.org/1999/xlink" xmlns:sketch="http://www.bohemiancoding.com/sketch/ns">
    <!-- Generator: Sketch 3.3.3 (12081) - http://www.bohemiancoding.com/sketch -->
    <title>Artboard 9 Copy 10</title>
    <desc>Created with Sketch.</desc>
    <defs></defs>
    <g id="Page-1" stroke="none" stroke-width="1" fill="none" fill-rule="evenodd" sketch:type="MSPage">
        <g id="Artboard-9-Copy-10" sketch:type="MSArtboardGroup">
            <!-- <rect id="Rectangle-14" fill="#282828" sketch:type="MSShapeGroup" x="0" y="0" width="600" height="600"></rect> -->
            <g id="Triangle-14-+-Triangle-14-Copy-+-Path-99-+-Path-99-Copy" sketch:type="MSLayerGroup" transform="translate(33.000000, 33.000000)" stroke="#FFFFFF">
                <polygon id="Triangle-14" stroke-width="18" sketch:type="MSShapeGroup" transform="translate(267.000000, 249.200000) scale(1, -1) translate(-267.000000, -249.200000) " points="267 26.7 489.5 471.7 44.5 471.7 "></polygon>
                <polygon id="Triangle-14-Copy" stroke-width="4" sketch:type="MSShapeGroup" transform="translate(267.000000, 267.000000) scale(1, -1) translate(-267.000000, -267.000000) " points="267 0 534 534 0 534 "></polygon>
            </g>
            <g id="thief" sketch:type="MSLayerGroup" transform="translate(203.000000, 96.000000)" fill="#FFFFFF">
                <g id="XMLID_1_" sketch:type="MSShapeGroup">
                    <path d="M167.873333,81.4785714 C190.868333,70.4285714 200.845,71.4 213.133333,87.1857143 C207.415,91.0714286 201.94,94.9571429 195.491667,99.45 C198.411667,102.607143 201.818333,106.735714 205.59,110.5 C209.483333,114.264286 213.741667,117.785714 217.878333,121.428571 C209.726667,127.621429 196.465,127.135714 187.461667,120.457143 C181.743333,116.207143 176.025,111.957143 169.333333,107.1 C168.481667,112.321429 167.995,116.814286 167.143333,121.185714 C158.991667,158.707143 137.335,185.057143 101.93,199.992857 C90.3716667,204.85 78.6916667,204.607143 67.0116667,199.871429 C19.6833333,180.807143 -7.205,131.871429 1.92,81.6 C5.69166667,60.9571429 12.0183333,41.4071429 27.2266667,26.35 C43.6516667,10.0785714 63.1183333,-3.82471832e-14 86.8433333,0.485714286 C118.233333,1.09285714 149.136667,24.7714286 160.695,56.8285714 C163.615,64.8428571 165.561667,73.2214286 167.873333,81.4785714 L167.873333,81.4785714 Z M152.056667,118.878571 C151.57,118.514286 151.205,118.271429 150.718333,117.907143 C142.931667,127.985714 131.86,132.235714 120.666667,136.242857 C111.176667,139.642857 105.215,137.942857 98.5233333,130.292857 C95.725,127.135714 93.0483333,123.857143 90.0066667,120.821429 C86.3566667,117.178571 82.4633333,117.178571 78.8133333,120.821429 C75.7716667,123.857143 73.095,127.135714 70.4183333,130.292857 C65.5516667,136 59.4683333,138.428571 52.0466667,137.578571 C39.515,136 28.6866667,131.264286 20.6566667,121.064286 C19.9266667,120.092857 18.8316667,119.364286 17.1283333,117.785714 C17.25,120.335714 17.1283333,121.792857 17.3716667,123.007143 C25.645,153.728571 43.4083333,176.192857 74.4333333,186.028571 C81.125,188.092857 89.6416667,187.85 96.3333333,185.664286 C126.628333,175.464286 144.026667,153 152.056667,122.764286 C152.3,121.671429 152.056667,120.214286 152.056667,118.878571 L152.056667,118.878571 Z M151.083333,76.8642857 C149.38,68.6071429 148.406667,62.1714286 146.703333,55.9785714 C145.121667,50.0285714 140.863333,46.9928571 134.536667,46.9928571 L34.8916667,46.9928571 C28.3216667,46.9928571 23.9416667,50.15 22.36,56.2214286 C20.7783333,62.4142857 19.805,68.7285714 18.345,76.1357143 C21.8733333,75.5285714 24.3066667,74.9214286 26.74,74.6785714 C32.7016667,73.95 38.785,72.4928571 44.625,73.1 C52.1683333,73.95 59.59,76.3785714 67.0116667,78.5642857 C78.4483333,82.0857143 89.6416667,82.0857143 100.956667,78.0785714 C106.553333,76.1357143 112.028333,74.3142857 117.746667,72.7357143 C124.681667,70.7928571 131.616667,70.7928571 138.551667,73.7071429 C141.836667,75.2857143 145.608333,75.65 151.083333,76.8642857 L151.083333,76.8642857 Z M37.4466667,100.907143 C46.45,113.292857 63.605,112.807143 70.175,101.271429 C60.8066667,89.9785714 46.45,89.6142857 37.4466667,100.907143 L37.4466667,100.907143 Z M131.008333,100.664286 C124.073333,89.9785714 104.485,90.1 98.645,101.757143 C107.283333,113.535714 121.396667,113.171429 131.008333,100.664286 L131.008333,100.664286 Z" id="XMLID_41_"></path>
                </g>
            </g>
        </g>
    </g>
</svg>
