<?xml version="1.0" encoding="UTF-8" standalone="no"?>
<svg width="600px" height="990px" viewBox="0 0 600 990" version="1.1" xmlns="http://www.w3.org/2000/svg" xmlns:xlink="http://www.w3.org/1999/xlink" xmlns:sketch="http://www.bohemiancoding.com/sketch/ns">
    <!-- Generator: Sketch 3.3.3 (12081) - http://www.bohemiancoding.com/sketch -->
    <title>Artboard 28 Copy 3</title>
    <desc>Created with Sketch.</desc>
    <defs></defs>
    <g id="Page-1" stroke="none" stroke-width="1" fill="none" fill-rule="evenodd" sketch:type="MSPage">
        <g id="Artboard-28-Copy-3" sketch:type="MSArtboardGroup">
            <!-- <rect id="Rectangle-70" fill="#2B2B2B" sketch:type="MSShapeGroup" x="0" y="0" width="600" height="990"></rect> -->
            <!-- <path d="M599,45.25 L599,944.75" id="Line" stroke="#FFFFFF" stroke-width="2" stroke-linecap="square" sketch:type="MSShapeGroup"></path> -->
            <g id="Triangle-14-+-Triangle-14-Copy-+-counterstrike-Copy" sketch:type="MSLayerGroup" transform="translate(4.000000, 228.000000)" stroke="#FFFFFF">
                <polygon id="Triangle-14" stroke-width="18" sketch:type="MSShapeGroup" transform="translate(267.000000, 249.200000) scale(1, -1) translate(-267.000000, -249.200000) " points="267 26.7 489.5 471.7 44.5 471.7 "></polygon>
                <polygon id="Triangle-14-Copy" stroke-width="4" sketch:type="MSShapeGroup" transform="translate(267.000000, 267.000000) scale(1, -1) translate(-267.000000, -267.000000) " points="267 0 534 534 0 534 "></polygon>
            </g>
            <path d="M315.252293,317.543247 C314.279967,328.046119 306.640306,323.587776 298.368827,329.318652 C296.137416,329.004998 293.592371,329.004998 290.097373,329.004998 C289.46558,322.001592 292.015126,320.72906 293.274237,319.456527 C298.368827,315.634449 301.886223,317.547729 301.886223,317.547729 C305.699329,316.902499 309.189851,317.861381 315.252293,317.543247 L315.252293,317.543247 L315.252293,317.543247 Z M334.34027,300.35062 L323.210087,300.35062 L323.210087,297.487423 L317.170045,297.487423 L317.170045,299.073607 C316.515853,299.387259 315.884086,300.032486 315.252293,300.34614 L314.6205,300.34614 C304.090761,292.070199 303.463443,308.944692 296.451075,305.122617 C295.819282,301.61867 296.137416,298.43286 296.137416,294.297131 C308.239925,293.974517 303.777102,290.793186 300.286605,286.657456 C299.027494,285.06231 298.368827,282.517246 298.055193,280.92658 C295.191989,270.423709 283.403139,264.056567 266.232914,270.741842 C255.075857,274.877571 257.96146,289.843268 258.906887,300.028006 C258.275119,300.977925 256.989134,300.664271 256.043708,300.664271 C243.941199,301.300539 238.532924,314.025861 235.983379,324.215079 C236.615172,333.449899 235.351611,343.634638 233.751968,352.542364 C232.152349,361.454571 228.975511,368.457979 228.657377,377.052054 C228.025584,384.691727 230.888789,393.603934 230.256996,400.607342 C223.562762,420.345034 218.781805,433.39297 215.291308,454.403195 C212.746237,459.175189 203.842991,469.359928 200.325595,471.59134 C199.380168,473.177524 200.957388,476.68595 199.380168,478.908402 C196.516964,483.044132 192.054141,485.275543 189.509071,489.733886 C190.140864,490.683805 185.678041,491.642684 186.018573,493.23783 C186.332233,494.824017 188.563644,498.959746 189.509071,499.918625 C189.82273,500.554892 192.999593,498.959746 192.999593,499.918625 C194.285552,503.731741 197.148757,511.69403 200.325595,513.602828 C214.345856,515.189012 214.345856,515.189012 220.067764,513.602828 C223.244628,504.368008 209.25124,508.508217 210.510351,496.092067 C229.625203,492.278951 235.66077,486.861727 243.300457,466.810383 C246.790954,452.167301 251.57191,437.846833 258.893463,423.840016 C260.152548,422.890097 259.838889,420.340552 262.070301,419.381673 C270.655414,433.702142 286.275293,443.895843 293.89258,458.857056 C295.810333,478.272134 299.641362,488.775007 306.308723,492.278951 C307.908341,492.915216 306.308723,498.959746 307.594682,500.232279 C307.594682,502.141077 308.226475,504.368008 307.281049,506.599419 C306.626857,508.194566 306.967389,510.103364 306.967389,511.69403 L306.967389,513.602828 C307.281049,516.479466 307.912816,516.479466 310.77602,518.697438 C319.047474,524.105693 330.204556,532.704255 341.334714,526.337104 C346.42933,518.052209 335.612806,507.558298 327.973145,502.145556 C325.428074,500.236758 320.965252,495.464761 321.592545,492.278951 C325.741734,488.13874 328.600438,469.996193 327.000819,455.989379 C326.369026,452.812528 325.741734,449.622236 324.455749,447.077173 C320.647118,439.760111 312.062005,429.570892 304.740453,422.253832 C305.685905,421.303913 306.971864,420.022421 308.549084,419.386153 C308.549084,412.387227 305.685905,410.155813 301.881749,405.065685 C298.678012,399.971074 291.378858,390.108952 285.943735,386.923139 C285.943735,386.923139 285.943735,386.600525 280.53546,386.600525 C280.221801,383.101061 281.189652,380.233384 282.135079,376.415786 C282.135079,373.55259 284.36649,375.147736 284.998283,368.776113 C286.597902,363.367851 285.943735,366.549181 287.229694,361.140919 C288.48878,358.595854 289.147447,356.046309 289.147447,351.906099 C293.90153,353.501246 303.454493,353.178632 307.603657,351.906099 C307.603657,351.906099 307.603657,351.906099 308.549084,352.542364 C309.835068,352.864978 310.148728,350.95618 311.094154,350.638046 C318.420181,346.811489 320.965252,340.130694 327.005294,339.494429 C327.005294,339.494429 330.209031,337.899283 334.958614,339.494429 C336.876366,339.494429 338.47601,339.80808 338.47601,337.899283 C338.789669,335.036086 338.789669,332.813634 340.393762,330.895874 C341.652848,338.535548 345.147845,347.134102 351.523946,355.410043 L357.877647,350.951701 C351.837605,343.634638 348.033448,335.3587 347.374782,325.805746 C347.688416,326.442011 348.028948,327.078279 348.660741,327.714544 C350.892153,327.714544 352.151238,322.938067 354.700784,323.256201 C355.014443,322.619933 355.673109,319.752257 356.300427,317.525325 L380.164887,317.525325 L388.75,315.616525 L388.75,311.158182 L382.396299,310.521917 L382.396299,305.427306 L380.796655,305.427306 L380.796655,299.696431 L376.988024,299.696431 L376.988024,305.109172 L367.116952,304.472907 L367.116952,300.968963 L363.308295,300.968963 L363.308295,304.150294 L353.123564,303.200375 L353.123564,298.423898 L349.292534,298.423898 L349.292534,302.882243 L334.326821,301.932324 L334.326821,300.35062 L334.34027,300.35062 L334.34027,300.35062 Z" id="path3672" fill="#FFFFFF" sketch:type="MSShapeGroup"></path>
        </g>
    </g>
</svg>
