<?xml version="1.0" encoding="UTF-8" standalone="no"?>
<svg width="600px" height="990px" viewBox="0 0 600 990" version="1.1" xmlns="http://www.w3.org/2000/svg" xmlns:xlink="http://www.w3.org/1999/xlink" xmlns:sketch="http://www.bohemiancoding.com/sketch/ns">
    <!-- Generator: Sketch 3.3.3 (12081) - http://www.bohemiancoding.com/sketch -->
    <title>Artboard 28 Copy 2</title>
    <desc>Created with Sketch.</desc>
    <defs></defs>
    <g id="Page-1" stroke="none" stroke-width="1" fill="none" fill-rule="evenodd" sketch:type="MSPage">
        <g id="Artboard-28-Copy-2" sketch:type="MSArtboardGroup">
            <!-- <rect id="Rectangle-70" fill="#2B2B2B" sketch:type="MSShapeGroup" x="0" y="0" width="600" height="990"></rect> -->
            <!-- <path d="M599,45.25 L599,944.75" id="Line" stroke="#FFFFFF" stroke-width="2" stroke-linecap="square" sketch:type="MSShapeGroup"></path> -->
            <g id="Triangle-14-+-Triangle-14-Copy-+-dota-2" sketch:type="MSLayerGroup" transform="translate(3.000000, 228.000000)" stroke="#FFFFFF">
                <polygon id="Triangle-14" stroke-width="18" sketch:type="MSShapeGroup" transform="translate(267.000000, 249.200000) scale(1, -1) translate(-267.000000, -249.200000) " points="267 26.7 489.5 471.7 44.5 471.7 "></polygon>
                <polygon id="Triangle-14-Copy" stroke-width="4" sketch:type="MSShapeGroup" transform="translate(267.000000, 267.000000) scale(1, -1) translate(-267.000000, -267.000000) " points="267 0 534 534 0 534 "></polygon>
            </g>
            <g id="Dota2Logo" sketch:type="MSLayerGroup" transform="translate(169.264463, 272.000000)" fill="#FFFFFF">
                <g id="layer1" transform="translate(0.316127, 0.494552)" sketch:type="MSShapeGroup">
                    <path d="M3.8661657,4.38727309 C3.8661657,4.38727309 10.124618,10.8281406 17.6347607,3.13488152 L18.8069689,5.32305004 L24.2438816,5.57606821 L25.5082792,6.58815589 L26.2669188,4.56398554 L27.0255584,4.69049712 L28.4163968,6.58815589 L29.4279129,5.44955662 L31.7038316,5.57606821 L33.09467,7.09419723 L33.9797453,6.20862113 L43.0834152,6.4616443 L45.2328931,5.19653846 L45.4857747,6.4616443 L49.531849,6.96768564 L51.1755639,4.69049712 C51.1755639,4.69049712 53.5779234,8.10628491 57.8768743,8.35930307 C62.1758302,8.61232624 70.7737371,8.10628491 70.7737371,8.10628491 C70.7737371,8.10628491 73.3025373,10.509983 74.1876126,8.10628491 C75.072693,5.70257979 74.1876126,6.58815589 74.1876126,6.58815589 L77.727929,6.4616443 C77.727929,6.4616443 78.8658858,7.09419723 80.0038477,2.16028042 L81.2682453,4.8170037 L81.9004441,2.03376884 L85.8200778,2.4133036 C85.8200778,2.4133036 87.5902334,3.80492103 88.854636,0.642156414 C88.854636,0.642156414 98.464059,4.69049712 102.636574,0.768662991 C102.636574,0.768662991 105.29181,3.04585652 109.717207,2.66632677 C114.142598,2.28679201 121.349672,6.08210954 121.476113,11.7750889 C121.476113,11.7750889 123.119828,10.3834714 129.821138,10.509983 C129.694697,9.62440892 133.487895,6.58815589 129.821138,4.18445078 C129.821138,4.18445078 132.855696,1.40121591 168.385285,5.19653846 C168.385285,5.19653846 170.281887,5.07002687 168.764608,2.53981518 C167.247329,0.00959848186 171.166962,1.14819775 170.281887,1.02168616 C170.281887,1.02168616 171.419844,8.86534441 175.7188,4.05793919 C175.7188,4.05793919 185.581104,8.73883783 185.707545,4.43747395 L187.604141,5.57606821 L193.041054,5.70257979 C193.041054,5.70257979 192.408855,8.35930307 198.604408,9.62440892 C198.604408,9.62440892 200.880326,19.8717703 197.845768,21.5164109 C197.845768,21.5164109 201.638961,39.6074325 198.983725,71.2350986 L193.167495,71.3616052 L195.443413,77.1810981 C195.443413,77.1810981 189.627178,78.9522453 192.788172,84.518715 C192.788172,84.518715 195.822731,83.2536092 193.673253,85.4042911 C193.673253,85.4042911 193.167495,87.6814796 196.45493,88.3140326 C196.45493,88.3140326 194.558333,96.1576958 198.477967,95.9046726 C198.477967,95.9046726 195.443413,102.989271 197.719327,104.633907 C197.719327,104.633907 195.949172,107.923183 196.58137,113.742676 C196.58137,113.742676 195.69629,114.754759 194.052575,113.363141 C194.052575,113.363141 190.765135,116.272888 199.363047,115.387312 L200.121687,197.239707 C200.121687,197.239707 183.937384,187.87792 177.741837,194.076942 L185.328223,194.709495 L184.822464,195.721578 L181.53503,195.84809 C181.53503,195.84809 181.66147,199.5169 179.132675,196.101113 C179.132675,196.101113 173.063564,201.794089 161.810416,196.227619 C161.810416,196.227619 156.373503,198.504813 151.948111,195.089025 C151.948111,195.089025 148.913553,194.456472 148.281354,197.49273 C148.281354,197.49273 143.47664,196.607154 136.77533,198.631324 L137.281088,196.860172 L136.396013,196.860172 L136.269572,199.010854 C136.269572,199.010854 135.258051,199.89643 133.867212,199.390389 L134.752293,196.354131 C134.752293,196.354131 132.729255,195.721578 131.970616,197.619237 L133.614336,197.239707 L133.108573,199.390389 C133.108573,199.390389 129.188939,203.312218 124.384225,200.149453 L129.31538,199.769919 C129.31538,199.769919 130.20046,199.137366 130.074019,198.25179 C130.074019,198.25179 110.728723,197.998771 111.360922,199.5169 L112.878201,200.655495 C112.878201,200.655495 106.429772,203.059195 103.521654,201.035024 L103.395214,199.137366 L102.383698,199.263877 L100.739978,201.667577 C100.739978,201.667577 97.9583009,196.733666 89.3603941,199.5169 L89.9925929,201.667577 C89.9925929,201.667577 86.9580346,201.414559 85.8200778,202.806177 L81.0153638,194.962513 C81.0153638,194.962513 73.9347361,198.25179 70.3944198,194.456472 C70.3944198,194.456472 69.762221,194.582984 69.5093394,196.354131 C69.5093394,196.354131 66.6012219,196.227619 65.2103835,191.799749 C65.2103835,191.799749 62.9344698,192.432302 63.8195502,196.354131 C63.8195502,196.354131 61.4171907,193.697408 61.2907499,192.179279 L59.5205942,194.076942 L60.7849919,195.595066 L60.1527931,196.354131 C60.1527931,196.354131 57.497557,193.570896 56.3596002,194.203449 L56.4860359,195.84809 L55.3480791,196.227619 L53.8307999,193.950431 C53.8307999,193.950431 52.187085,194.836002 52.0606443,196.101113 L51.4284455,195.215537 L50.5433651,195.84809 L49.4054083,195.84809 C49.4054083,195.84809 49.026086,193.317878 48.3938872,192.938343 L47.7616884,194.582984 L45.4857747,194.582984 L45.4857747,193.064855 L43.3362967,194.582984 C43.3362967,194.582984 40.8074965,194.203449 40.3017384,196.607154 L38.9109,195.974601 C38.9109,195.974601 39.1637815,193.317878 38.1522604,192.179279 C38.1522604,192.179279 36.7614221,191.546726 36.5085455,194.836002 C36.5085455,194.836002 34.8648256,195.46856 34.3590676,193.064855 L33.2211107,193.064855 L33.4739873,196.227619 C33.4739873,196.227619 32.8417884,193.950431 27.6577572,194.582984 C27.6577572,194.582984 21.7150864,194.962513 20.9564468,192.938343 L20.4506838,196.101113 C20.4506838,196.101113 20.0713665,193.317878 14.5080129,195.84809 L13.2436153,195.721578 L13.3700561,194.076942 L12.6114165,194.076942 L12.1056585,196.860172 L10.8412608,196.607154 C10.8412608,196.607154 12.1056585,194.456472 10.7148201,193.950431 C10.7148201,193.950431 8.69178289,194.456472 8.43890136,196.480642 L7.17450374,195.84809 L7.3009445,193.064855 L1.48470945,192.179279 C1.48470945,192.179279 5.27790731,185.347703 2.49623055,162.828811 C2.49623055,162.828811 2.62267131,154.985148 3.88706893,152.960977 L6.92162221,152.834466 L7.80670255,131.327656 L3.88706893,130.695103 C3.88706893,130.695103 2.11690826,122.724934 3.12842936,104.760419 C3.12842936,104.760419 3.76062817,104.380889 5.53078383,105.899013 L6.03654689,105.013442 L4.26638621,104.001354 L4.39282698,102.103695 L7.80670255,104.001354 L8.05958408,96.410714 C8.05958408,96.410714 1.10539216,93.2479494 5.53078383,81.9885033 C5.53078383,81.9885033 -0.664763504,62.5058593 3.6341874,17.0885354 L2.49623055,16.4559825 C2.49623055,16.4559825 2.11690826,19.4922405 0.220311826,16.5824941 L0.599634116,6.33513272 L2.87554783,6.58815589 L2.62267131,7.3472204 L1.73759097,7.60023856 L2.11690826,12.2811302 L2.87554783,12.4076418 L3.8661657,4.38727309 Z M23.7381236,41.3785847 L72.2910162,93.2479494 C72.2910162,93.2479494 75.9577733,92.741908 77.0957302,95.6516545 C78.233687,98.5613959 76.3370906,96.0311842 76.3370906,96.0311842 L74.8198115,94.89259 L94.4179846,116.146376 C94.4179846,116.146376 92.0156301,109.567824 95.1766241,115.513823 C98.3376232,121.459828 103.395214,125.761187 103.395214,125.761187 L104.153853,124.622592 L101.245736,121.333316 C101.245736,121.333316 99.0962628,118.803099 102.130816,120.44774 L105.924009,125.381657 C105.924009,125.381657 105.038934,128.164892 107.947046,130.568592 L107.314847,128.544421 C107.314847,128.544421 109.843648,129.936039 111.993126,134.237403 L111.866685,132.592762 L114.016163,134.616933 L113.131082,135.755527 L133.361454,157.388853 C133.361454,157.388853 138.039727,168.521787 163.327695,166.877152 C163.327695,166.877152 175.339477,151.56936 176.350998,128.670933 L159.660938,117.411487 L149.925074,116.525911 L150.05151,114.88127 L153.718267,116.399399 L154.982665,116.525911 L152.833187,114.754759 L153.844708,113.616164 L73.5554138,58.9635649 C73.5554138,58.9635649 68.4978234,59.2165831 68.7506999,55.9273069 L66.7276627,55.8007953 L65.5897058,54.662201 L64.451749,55.5477771 L63.8195502,54.9152242 L64.5781847,53.6501134 L61.4171907,51.8789662 L62.9344698,53.776625 L62.1758302,54.1561597 L58.8883954,50.8668835 L59.647035,49.9813074 L44.7271351,39.4809209 C44.7271351,39.4809209 37.8993889,32.143309 23.7381236,41.3785847 L23.7381236,41.3785847 Z M39.1005612,122.345399 L78.5497889,160.488362 L50.6065855,169.470619 L48.8996502,168.395276 C48.8996502,168.395276 48.3306668,170.798981 45.8018716,169.091084 C45.8018716,169.091084 46.876608,170.925492 48.0145699,167.762723 C48.0145699,167.762723 47.5720272,166.75064 46.9398284,167.762723 L46.4972907,168.711555 L46.37085,166.877152 L45.2328931,167.636216 L44.3478128,167.509705 L44.1581567,169.15434 L27.4680961,156.7563 C27.4680961,156.7563 25.0657416,155.870724 26.962338,150.114487 C28.8589344,144.358255 39.1005612,122.345399 39.1005612,122.345399 L39.1005612,122.345399 Z M158.143664,73.3225198 L162.189738,47.3245841 L161.051776,47.3878399 L161.178217,48.3999226 C161.178217,48.3999226 160.672459,50.6138603 160.166701,48.6529458 C159.660938,46.6920312 160.7989,46.1227291 160.7989,46.1227291 L162.126518,46.5022638 L162.189738,45.6799435 L153.40217,39.2279027 C153.40217,39.2279027 150.304391,36.8874534 144.172059,38.848368 C138.039727,40.8092825 119.010533,45.6166877 119.010533,45.6166877 L152.200988,71.1085871 L152.643531,70.223011 L151.063031,69.4639464 C151.063031,69.4639464 149.988295,68.1355848 152.011332,68.1988406 C154.034369,68.2620964 153.528606,72.0574139 153.528606,72.0574139 L155.425207,72.0574139 L156.499944,73.4490314 L158.143664,73.3225198 Z" id="path3775"></path>
                </g>
            </g>
        </g>
    </g>
</svg>
