<?xml version="1.0" encoding="UTF-8" standalone="no"?>
<svg width="600px" height="990px" viewBox="0 0 600 990" version="1.1" xmlns="http://www.w3.org/2000/svg" xmlns:xlink="http://www.w3.org/1999/xlink" xmlns:sketch="http://www.bohemiancoding.com/sketch/ns">
    <!-- Generator: Sketch 3.3.3 (12081) - http://www.bohemiancoding.com/sketch -->
    <title>Artboard 28 Copy 8</title>
    <desc>Created with Sketch.</desc>
    <defs></defs>
    <g id="Page-1" stroke="none" stroke-width="1" fill="none" fill-rule="evenodd" sketch:type="MSPage">
        <g id="Artboard-28-Copy-8" sketch:type="MSArtboardGroup">
            <!-- <rect id="Rectangle-70" fill="#2B2B2B" sketch:type="MSShapeGroup" x="0" y="0" width="600" height="990"></rect> -->
            <!-- <path d="M599,45.25 L599,944.75" id="Line" stroke="#FFFFFF" stroke-width="2" stroke-linecap="square" sketch:type="MSShapeGroup"></path> -->
            <g id="Triangle-14-+-Triangle-14-Copy-+-Path-99-+-Path-99-Copy-Copy" sketch:type="MSLayerGroup" transform="translate(4.000000, 228.000000)">
                <polygon id="Triangle-14" stroke="#FFFFFF" stroke-width="18" sketch:type="MSShapeGroup" transform="translate(267.000000, 249.200000) scale(1, -1) translate(-267.000000, -249.200000) " points="267 26.7 489.5 471.7 44.5 471.7 "></polygon>
                <polygon id="Triangle-14-Copy" stroke="#FFFFFF" stroke-width="4" sketch:type="MSShapeGroup" transform="translate(267.000000, 267.000000) scale(1, -1) translate(-267.000000, -267.000000) " points="267 0 534 534 0 534 "></polygon>
                <g id="Path-99-+-Path-99-Copy" transform="translate(155.010000, 87.550000)" fill="#FFFFFF" sketch:type="MSShapeGroup">
                    <path d="M39.8774512,102.511491 C39.8774512,102.511491 53.3151384,105.091389 57.7206222,111.080485 C62.1261061,117.069581 56.5631151,130.036625 47.9941049,133.559006 C40.4137645,140.022281 30.6831527,149.562159 38.1462116,156.220086 C45.6092705,162.878013 62.4266974,179.058305 62.4266974,179.058305 C62.4266974,179.058305 86.5460116,174.110115 88.8691596,127.701704 C87.7078824,124.613721 85.3960458,116.674674 85.7300228,113.445731 C86.9879269,110.449011 93.5435836,102.49336 93.5435836,102.49336 L90.2537465,97.2087109 C90.2537465,97.2087109 93.9993986,84.3838326 104.555039,93.8007083 C106.429856,92.8281 102.124489,82.5185583 90.5617283,84.5473245 C88.2813141,82.5129261 83.9802698,81.3153063 88.3399684,74.0377222 C87.5278009,73.313173 84.8670532,73.8800794 84.8670532,73.8800794 C84.8670532,73.8800794 84.2412164,68.0394724 86.5020897,62.7060698 L73.9670156,51.5233054 L71.4803098,51.9500375 L58.6572258,40.5103343 L54.8584376,41.8185214 L29.8698151,19.5257232 L19.1538446,0.860047997 C19.1538446,0.860047997 9.62440429,2.06335661 2.86385136,14.8380068 C3.78186275,18.5849431 4.1406796,23.0239692 0.465428305,27.6807124 L36.709805,60.0149708 C36.709805,60.0149708 9.57565932,85.1845619 37.7080266,101.754421 C39.8774511,102.511491 39.8774512,102.511491 39.8774512,102.511491 L39.8774512,102.511491 L39.8774512,102.511491 Z M38.4659926,67.1617234 L37.7621592,73.297907 L43.5250022,79.3207649 C43.5250022,79.3207649 43.4590408,84.2706081 41.9840325,84.4146842 C40.5090243,84.5587603 39.3797472,86.4930686 35.9665812,86.093289 C32.5534153,85.6935094 34.5102289,90.3936198 44.7954416,87.5148226 C47.3867637,89.8265875 50.1045743,89.8888231 50.1045743,89.8888231 C50.1045743,89.8888231 44.6744176,100.611997 34.2867863,93.115347 C23.8991549,85.6186969 30.8544292,71.5451584 36.2913785,68.1634678 C41.7283278,64.7817773 38.4659926,67.1617234 38.4659926,67.1617234 L38.4659926,67.1617234 L38.4659926,67.1617234 Z" id="Path-99"></path>
                    <path d="M185.828906,102.511491 C185.828906,102.511491 172.391219,105.091389 167.985735,111.080485 C163.580251,117.069581 169.143242,130.036625 177.712252,133.559006 C185.292592,140.022281 195.023204,149.562159 187.560145,156.220086 C180.097086,162.878013 163.27966,179.058305 163.27966,179.058305 C163.27966,179.058305 139.160345,174.110115 136.837197,127.701704 C137.998475,124.613721 140.310311,116.674674 139.976334,113.445731 C138.71843,110.449011 132.162773,102.49336 132.162773,102.49336 L135.45261,97.2087109 C135.45261,97.2087109 131.706958,84.3838326 121.151318,93.8007083 C119.276501,92.8281 123.581868,82.5185583 135.144629,84.5473245 C137.425043,82.5129261 141.726087,81.3153063 137.366389,74.0377222 C138.178556,73.313173 140.839304,73.8800794 140.839304,73.8800794 C140.839304,73.8800794 141.465141,68.0394724 139.204267,62.7060698 L151.739341,51.5233054 L154.226047,51.9500375 L167.049131,40.5103343 L170.847919,41.8185214 L195.836542,19.5257232 L206.552512,0.860047997 C206.552512,0.860047997 216.081953,2.06335661 222.842506,14.8380068 C221.924494,18.5849431 221.565677,23.0239692 225.240929,27.6807124 L188.996552,60.0149708 C188.996552,60.0149708 216.130698,85.1845619 187.99833,101.754421 C185.828906,102.511491 185.828906,102.511491 185.828906,102.511491 L185.828906,102.511491 L185.828906,102.511491 Z M187.240364,67.1617234 L187.944198,73.297907 L182.181355,79.3207649 C182.181355,79.3207649 182.247316,84.2706081 183.722324,84.4146842 C185.197333,84.5587603 186.32661,86.4930686 189.739776,86.093289 C193.152942,85.6935094 191.196128,90.3936198 180.910915,87.5148226 C178.319593,89.8265875 175.601783,89.8888231 175.601783,89.8888231 C175.601783,89.8888231 181.031939,100.611997 191.419571,93.115347 C201.807202,85.6186969 194.851928,71.5451584 189.414978,68.1634678 C183.978029,64.7817773 187.240364,67.1617234 187.240364,67.1617234 L187.240364,67.1617234 L187.240364,67.1617234 Z" id="Path-99-Copy"></path>
                </g>
            </g>
        </g>
    </g>
</svg>
