<?xml version="1.0" encoding="UTF-8" standalone="no"?>
<svg width="600px" height="990px" viewBox="0 0 600 990" version="1.1" xmlns="http://www.w3.org/2000/svg" xmlns:xlink="http://www.w3.org/1999/xlink" xmlns:sketch="http://www.bohemiancoding.com/sketch/ns">
    <!-- Generator: Sketch 3.3.3 (12081) - http://www.bohemiancoding.com/sketch -->
    <title>Artboard 28 Copy 4</title>
    <desc>Created with Sketch.</desc>
    <defs></defs>
    <g id="Page-1" stroke="none" stroke-width="1" fill="none" fill-rule="evenodd" sketch:type="MSPage">
        <g id="Artboard-28-Copy-4" sketch:type="MSArtboardGroup">
            <!-- <rect id="Rectangle-70" fill="#2B2B2B" sketch:type="MSShapeGroup" x="0" y="0" width="600" height="990"></rect> -->
            <!-- <path d="M599,45.25 L599,944.75" id="Line" stroke="#FFFFFF" stroke-width="2" stroke-linecap="square" sketch:type="MSShapeGroup"></path> -->
            <g id="Triangle-14-+-Triangle-14-Copy-+-nfs-Copy" sketch:type="MSLayerGroup" transform="translate(4.000000, 228.000000)" stroke="#FFFFFF">
                <polygon id="Triangle-14" stroke-width="18" sketch:type="MSShapeGroup" transform="translate(267.000000, 249.200000) scale(1, -1) translate(-267.000000, -249.200000) " points="267 26.7 489.5 471.7 44.5 471.7 "></polygon>
                <polygon id="Triangle-14-Copy" stroke-width="4" sketch:type="MSShapeGroup" transform="translate(267.000000, 267.000000) scale(1, -1) translate(-267.000000, -267.000000) " points="267 0 534 534 0 534 "></polygon>
            </g>
            <g id="_x27_N_x27__logo" sketch:type="MSLayerGroup" transform="translate(168.000000, 311.000000)" fill="#FFFFFF">
                <path d="M0.445033113,131.555056 L76.5456954,0 L172.821192,0 C172.821192,0 184.392053,0.296629213 184.98543,9.04719101 L138.108609,40.341573 C140.927152,36.4853933 143.89404,28.4764045 137.811921,28.4764045 L93.1602649,28.4764045 L54.5907285,95.811236 L0.445033113,131.555056 L0.445033113,131.555056 Z" id="Upper_N" sketch:type="MSShapeGroup"></path>
                <path d="M139.740397,105.896629 L64.0847682,105.896629 L222.961589,0.148314607 L176.678146,41.8247191 L139.740397,105.896629 Z" id="Lower_N" sketch:type="MSShapeGroup"></path>
            </g>
        </g>
    </g>
</svg>
