<?xml version="1.0" encoding="UTF-8" standalone="no"?>
<svg width="600px" height="990px" viewBox="0 0 600 990" version="1.1" xmlns="http://www.w3.org/2000/svg" xmlns:xlink="http://www.w3.org/1999/xlink" xmlns:sketch="http://www.bohemiancoding.com/sketch/ns">
    <!-- Generator: Sketch 3.3.3 (12081) - http://www.bohemiancoding.com/sketch -->
    <title>Artboard 28 Copy</title>
    <desc>Created with Sketch.</desc>
    <defs></defs>
    <g id="Page-1" stroke="none" stroke-width="1" fill="none" fill-rule="evenodd" sketch:type="MSPage">
        <g id="Artboard-28-Copy" sketch:type="MSArtboardGroup">
            <!-- <rect id="Rectangle-70" fill="#2B2B2B" sketch:type="MSShapeGroup" x="0" y="0" width="600" height="990"></rect> -->
            <path d="M599,45.25 L599,944.75" id="Line" style="opacity:0.2;" stroke="#FFFFFF" stroke-width="2" stroke-linecap="square" sketch:type="MSShapeGroup"></path>
            <g id="Triangle-14-+-Triangle-14-Copy-+-Group" sketch:type="MSLayerGroup" transform="translate(4.000000, 228.000000)">
                <polygon id="Triangle-14" stroke="#FFFFFF" stroke-width="18" sketch:type="MSShapeGroup" transform="translate(267.000000, 249.200000) scale(1, -1) translate(-267.000000, -249.200000) " points="267 26.7 489.5 471.7 44.5 471.7 "></polygon>
                <polygon id="Triangle-14-Copy" stroke="#FFFFFF" stroke-width="4" sketch:type="MSShapeGroup" transform="translate(267.000000, 267.000000) scale(1, -1) translate(-267.000000, -267.000000) " points="267 0 534 534 0 534 "></polygon>
                <g id="Group" transform="translate(171.770000, 53.400000)" sketch:type="MSShapeGroup">
                    <ellipse id="Oval-42" stroke="#FFFFFF" stroke-width="20" cx="100" cy="113.6" rx="100" ry="100"></ellipse>
                    <ellipse id="Oval-42-Copy" stroke="#FFFFFF" stroke-width="20" cx="100" cy="113.6" rx="67.2" ry="67.2"></ellipse>
                    <ellipse id="Oval-42-Copy-2" fill="#FFFFFF" cx="100" cy="113.6" rx="32" ry="32"></ellipse>
                    <path d="M125.707569,89.3670925 L236.586524,17.3614573 L244.163542,29.0290419 L133.284587,101.034677 L125.707569,89.3670925 L125.707569,89.3670925 Z" id="Rectangle-30-Copy" fill="#202020"></path>
                    <path d="M187.457844,48.751962 L187.658141,37.2658202 L244.299443,0.482528769 L235.299792,25.2903156 L261.623321,27.1589611 L204.982019,63.9422525 L194.407438,59.4533985 L102.003384,119.461293 L95.0537894,108.759857 L187.457844,48.751962 L187.457844,48.751962 Z" id="Rectangle-30" fill="#FFFFFF"></path>
                </g>
            </g>
        </g>
    </g>
</svg>
