<?xml version="1.0" encoding="UTF-8" standalone="no"?>
<svg width="600px" height="990px" viewBox="0 0 600 990" version="1.1" xmlns="http://www.w3.org/2000/svg" xmlns:xlink="http://www.w3.org/1999/xlink" xmlns:sketch="http://www.bohemiancoding.com/sketch/ns">
    <!-- Generator: Sketch 3.3.3 (12081) - http://www.bohemiancoding.com/sketch -->
    <title>Artboard 28</title>
    <desc>Created with Sketch.</desc>
    <defs></defs>
    <g id="Page-1" stroke="none" stroke-width="1" fill="none" fill-rule="evenodd" sketch:type="MSPage">
        <g id="Artboard-28" sketch:type="MSArtboardGroup">
            <!-- <rect id="Rectangle-70" fill="#2B2B2B" sketch:type="MSShapeGroup" x="0" y="0" width="600" height="990"></rect> -->
            <path d="M599,45.25 L599,944.75" id="Line" stroke="#FFFFFF" style="opacity:0.;" stroke-width="2" stroke-linecap="square" sketch:type="MSShapeGroup"></path>
            <g id="Group" sketch:type="MSLayerGroup" transform="translate(0.000000, 228.000000)">
                <g id="start+end" transform="translate(90.780000, 46.280000)" sketch:type="MSShapeGroup">
                    <path d="M7.50518035,3.78104734 L14.9765058,0.406551004 L35.2104884,0.406551004 L41.8511853,3.78104734 L49.6116605,11.2567047 L24.9462148,45.873449 L0.020859375,11.2567047 L7.50518035,3.78104734 Z" id="Rectangle-7" stroke="#FFFFFF" stroke-width="3"></path>
                    <path d="M14.3401362,8.30863469 L18.8615486,6.2664951 L31.1065217,6.2664951 L35.1252637,8.30863469 L39.8216605,12.8326686 L24.8949046,33.7816391 L9.81085938,12.8326686 L14.3401362,8.30863469 Z" id="Rectangle-7-Copy" fill="#FFFFFF"></path>
                    <circle id="Start" stroke="#FFFFFF" stroke-width="3" cx="178" cy="314.17" r="13.35"></circle>
                </g>
                <polygon id="Triangle-14" stroke="#FFFFFF" stroke-width="18" sketch:type="MSShapeGroup" transform="translate(267.000000, 249.200000) scale(1, -1) translate(-267.000000, -249.200000) " points="267 26.7 489.5 471.7 44.5 471.7 "></polygon>
                <polygon id="Triangle-14-Copy" stroke="#FFFFFF" stroke-width="4" sketch:type="MSShapeGroup" transform="translate(267.000000, 267.000000) scale(1, -1) translate(-267.000000, -267.000000) " points="267 0 534 534 0 534 "></polygon>
                <g id="points" transform="translate(178.000000, 70.310000)" stroke="#FFFFFF" sketch:type="MSShapeGroup">
                    <ellipse id="Oval-1" fill="#FFFFFF" cx="94.785" cy="190.015" rx="11.125" ry="11.125"></ellipse>
                    <ellipse id="Oval-1-Copy" stroke-width="3" cx="94.785" cy="190.015" rx="15.575" ry="15.575"></ellipse>
                    <ellipse id="Oval-1" fill="#FFFFFF" cx="160.645" cy="115.255" rx="11.125" ry="11.125"></ellipse>
                    <ellipse id="Oval-1-Copy" stroke-width="3" cx="160.645" cy="115.255" rx="15.575" ry="15.575"></ellipse>
                    <ellipse id="Oval-1" fill="#FFFFFF" cx="63.635" cy="75.205" rx="11.125" ry="11.125"></ellipse>
                    <ellipse id="Oval-1-Copy" stroke-width="3" cx="63.635" cy="75.205" rx="15.575" ry="15.575"></ellipse>
                    <ellipse id="Oval-1" fill="#FFFFFF" cx="26.255" cy="153.525" rx="11.125" ry="11.125"></ellipse>
                    <ellipse id="Oval-1-Copy" stroke-width="3" cx="26.255" cy="153.525" rx="15.575" ry="15.575"></ellipse>
                    <ellipse id="Oval-1" fill="#FFFFFF" cx="15.575" cy="15.575" rx="11.125" ry="11.125"></ellipse>
                    <ellipse id="Oval-1-Copy" stroke-width="3" cx="15.575" cy="15.575" rx="15.575" ry="15.575"></ellipse>
                    <ellipse id="Oval-1" fill="#FFFFFF" cx="134.835" cy="20.025" rx="11.125" ry="11.125"></ellipse>
                    <ellipse id="Oval-1-Copy" stroke-width="3" cx="134.835" cy="20.025" rx="15.575" ry="15.575"></ellipse>
                </g>
                <g id="paths" transform="translate(137.950000, 55.180000)" fill="#FFFFFF" sketch:type="MSShapeGroup">
                    <path d="M132.600779,226.37427 L132.385584,230.480435 L136.417092,230.691717 L136.632287,226.585552 L132.600779,226.37427 L132.600779,226.37427 Z M132.027578,237.3116 L131.812383,241.417765 L135.843891,241.629047 L136.059085,237.522882 L132.027578,237.3116 L132.027578,237.3116 Z M131.462202,248.099615 L131.247007,252.20578 L135.278515,252.417062 L135.49371,248.310897 L131.462202,248.099615 L131.462202,248.099615 Z M130.908564,258.663658 L130.693369,262.769823 L134.724877,262.981105 L134.940072,258.87494 L130.908564,258.663658 L130.908564,258.663658 Z M130.335363,269.600988 L130.120168,273.707153 L134.151675,273.918435 L134.36687,269.81227 L130.335363,269.600988 L130.335363,269.600988 Z M129.769987,280.389003 L129.554792,284.495168 L133.586299,284.70645 L133.801494,280.600285 L129.769987,280.389003 L129.769987,280.389003 Z" id="……"></path>
                    <path d="M83.9831695,180.098837 L87.7097259,181.836559 L89.4158527,178.177758 L85.6892964,176.440036 L83.9831695,180.098837 L83.9831695,180.098837 Z M93.5705827,184.569521 L97.2971391,186.307243 L99.0032659,182.648442 L95.2767096,180.91072 L93.5705827,184.569521 L93.5705827,184.569521 Z M103.496774,189.19818 L107.22333,190.935902 L108.929457,187.277101 L105.202901,185.539379 L103.496774,189.19818 L103.496774,189.19818 Z M113.287454,193.763649 L117.01401,195.501371 L118.720137,191.84257 L114.99358,190.104848 L113.287454,193.763649 L113.287454,193.763649 Z" id="……-copy-2"></path>
                    <path d="M66.0900487,48.8026374 L68.7330628,51.9524589 L71.8256149,49.3574997 L69.1826008,46.2076781 L66.0900487,48.8026374 L66.0900487,48.8026374 Z M72.8898032,56.9062692 L75.5328173,60.0560907 L78.6253693,57.4611314 L75.9823552,54.3113099 L72.8898032,56.9062692 L72.8898032,56.9062692 Z M79.9298316,65.2962484 L82.5728457,68.4460699 L85.6653978,65.8511106 L83.0223837,62.7012891 L79.9298316,65.2962484 L79.9298316,65.2962484 Z M86.8737505,73.5716886 L89.5167646,76.7215102 L92.6093166,74.1265509 L89.9663025,70.9767293 L86.8737505,73.5716886 L86.8737505,73.5716886 Z" id="……-copy-5"></path>
                    <path d="M236.260665,86.5954981 L233.404368,89.5532795 L236.308372,92.3576431 L239.164668,89.3998617 L236.260665,86.5954981 L236.260665,86.5954981 Z M228.912193,94.205063 L226.055897,97.1628444 L228.959901,99.967208 L231.816197,97.0094266 L228.912193,94.205063 L228.912193,94.205063 Z M221.304059,102.083517 L218.447762,105.041298 L221.351766,107.845662 L224.208062,104.887881 L221.304059,102.083517 L221.304059,102.083517 Z M213.799789,109.854415 L210.943493,112.812197 L213.847497,115.61656 L216.703793,112.658779 L213.799789,109.854415 L213.799789,109.854415 Z" id="……-copy-7"></path>
                    <path d="M55.7325905,150.076458 L54.3939193,146.188674 L50.576823,147.503006 L51.9154942,151.390789 L55.7325905,150.076458 L55.7325905,150.076458 Z M52.2885547,140.074252 L50.9498836,136.186468 L47.1327873,137.5008 L48.4714584,141.388583 L52.2885547,140.074252 L52.2885547,140.074252 Z M48.7228216,129.718611 L47.3841505,125.830827 L43.5670542,127.145159 L44.9057253,131.032942 L48.7228216,129.718611 L48.7228216,129.718611 Z M45.2057674,119.504344 L43.8670963,115.61656 L40.05,116.930892 L41.3886711,120.818675 L45.2057674,119.504344 L45.2057674,119.504344 Z" id="……-copy-8"></path>
                    <path d="M0.661660461,15.4506519 L4.6141763,16.5840176 L5.72693533,12.7033657 L1.77441949,11.57 L0.661660461,15.4506519 L0.661660461,15.4506519 Z M10.8304058,18.3664927 L14.7829216,19.4998584 L15.8956806,15.6192065 L11.9431648,14.4858408 L10.8304058,18.3664927 L10.8304058,18.3664927 Z M21.3584707,21.3853667 L25.3109865,22.5187324 L26.4237456,18.6380805 L22.4712297,17.5047148 L21.3584707,21.3853667 L21.3584707,21.3853667 Z M31.7428078,24.3630275 L35.6953236,25.4963932 L36.8080826,21.6157413 L32.8555668,20.4823756 L31.7428078,24.3630275 L31.7428078,24.3630275 Z" id="……-copy-6"></path>
                    <path d="M149.807784,190.806999 L152.505368,187.703785 L149.458575,185.055248 L146.760992,188.158463 L149.807784,190.806999 L149.807784,190.806999 Z M156.993166,182.541163 L159.690749,179.437949 L156.643957,176.789412 L153.946373,179.892627 L156.993166,182.541163 L156.993166,182.541163 Z M164.080453,174.388172 L166.778037,171.284957 L163.731244,168.63642 L161.033661,171.739635 L164.080453,174.388172 L164.080453,174.388172 Z M171.0206,166.404446 L173.718184,163.301231 L170.671391,160.652695 L167.973807,163.75591 L171.0206,166.404446 L171.0206,166.404446 Z M178.205982,158.13861 L180.903565,155.035395 L177.856772,152.386859 L175.159189,155.490074 L178.205982,158.13861 L178.205982,158.13861 Z M185.293269,149.985619 L187.990853,146.882404 L184.94406,144.233867 L182.246477,147.337082 L185.293269,149.985619 L185.293269,149.985619 Z" id="……-copy"></path>
                    <path d="M120.043795,74.4489726 L123.370311,72.0321172 L120.997398,68.7660832 L117.670882,71.1829386 L120.043795,74.4489726 L120.043795,74.4489726 Z M128.904424,68.0113487 L132.23094,65.5944933 L129.858027,62.3284593 L126.531511,64.7453147 L128.904424,68.0113487 L128.904424,68.0113487 Z M137.644089,61.6616104 L140.970605,59.244755 L138.597692,55.978721 L135.271176,58.3955764 L137.644089,61.6616104 L137.644089,61.6616104 Z M146.202308,55.4437006 L149.528824,53.0268452 L147.155911,49.7608112 L143.829395,52.1776666 L146.202308,55.4437006 L146.202308,55.4437006 Z M155.062937,49.0060766 L158.389453,46.5892212 L156.01654,43.3231873 L152.690024,45.7400427 L155.062937,49.0060766 L155.062937,49.0060766 Z" id="……-copy-4"></path>
                    <path d="M74.7736248,21.8733779 L78.5860194,20.3330705 L77.0737176,16.5899922 L73.261323,18.1302996 L74.7736248,21.8733779 L74.7736248,21.8733779 Z M84.9284577,17.7705592 L88.7408522,16.2302518 L87.2285504,12.4871735 L83.4161559,14.0274808 L84.9284577,17.7705592 L84.9284577,17.7705592 Z M94.9446579,13.7237516 L98.7570525,12.1834442 L97.2447507,8.44036585 L93.4323561,9.98067324 L94.9446579,13.7237516 L94.9446579,13.7237516 Z M104.752909,9.76096072 L108.565304,8.22065333 L107.053002,4.47757502 L103.240608,6.01788241 L104.752909,9.76096072 L104.752909,9.76096072 Z M114.907742,5.65814194 L118.720137,4.11783455 L117.207835,0.374756243 L113.39544,1.91506363 L114.907742,5.65814194 L114.907742,5.65814194 Z" id="……-copy-9"></path>
                    <path d="M75.7969736,151.137352 L77.5346953,147.410796 L73.8758945,145.704669 L72.1381728,149.431226 L75.7969736,151.137352 L75.7969736,151.137352 Z M80.4256325,141.211161 L82.1633542,137.484605 L78.5045534,135.778478 L76.7668317,139.505034 L80.4256325,141.211161 L80.4256325,141.211161 Z M84.9911015,131.420481 L86.7288232,127.693925 L83.0700224,125.987798 L81.3323007,129.714355 L84.9911015,131.420481 L84.9911015,131.420481 Z M89.4617857,121.833068 L91.1995074,118.106512 L87.5407066,116.400385 L85.8029849,120.126941 L89.4617857,121.833068 L89.4617857,121.833068 Z M94.0904445,111.906877 L95.8281663,108.180321 L92.1693655,106.474194 L90.4316438,110.20075 L94.0904445,111.906877 L94.0904445,111.906877 Z" id="……-copy-3"></path>
                </g>
                <g id="dead-ends" transform="translate(164.650000, 42.720000)" fill="#FFFFFF" sketch:type="MSShapeGroup">
                    <path d="M238.564961,93.7462152 L232.286289,100.024887 L225.514815,93.2534125 L218.761592,100.024887 L212.464668,93.7462152 L219.236143,86.9747406 L212.464668,80.2580219 L218.798096,73.9245941 L225.514815,80.6595648 L232.249785,73.9245941 L238.564961,80.2580219 L231.793487,86.9747406 L238.564961,93.7462152 Z" id="✖︎"></path>
                    <path d="M120.060992,20.4213281 L113.78232,26.7 L107.010845,19.9285254 L100.257622,26.7 L93.9606986,20.4213281 L100.732173,13.6498535 L93.9606986,6.93313477 L100.294126,0.599707031 L107.010845,7.33467773 L113.745816,0.599707031 L120.060992,6.93313477 L113.289517,13.6498535 L120.060992,20.4213281 Z" id="✖︎-copy-2"></path>
                    <path d="M26.4001465,121.797889 L20.1214746,128.07656 L13.35,121.305086 L6.59677734,128.07656 L0.299853516,121.797889 L7.07132812,115.026414 L0.299853516,108.309695 L6.63328125,101.976267 L13.35,108.711238 L20.0849707,101.976267 L26.4001465,108.309695 L19.6286719,115.026414 L26.4001465,121.797889 Z" id="✖︎-copy"></path>
                </g>
            </g>
        </g>
    </g>
</svg>
